<svg enable-background="new 0 0 256 256" height="256" viewBox="0 0 256 256" width="256" xmlns="http://www.w3.org/2000/svg"><path d="m33.811 249.595c-4.842 0-9.278-1.771-12.492-4.983l-9.595-9.595c-7.669-7.672-6.338-21.019 3.029-30.389 5.069-5.07 11.562-7.983 17.821-8.002l15.472-15.472c-9.146-8.094-13.311-10.414-14.024-10.784-12.19-4.836-14.102-11.686-13.545-16.599.562-4.955 4.009-11.267 17.246-13.198.476-.069 2.242-.294 5.033-.294 6.208 0 17.583 1.128 30.459 7.813l15.805-17.72-70.434-62.82c-1.829-1.631-3.016-3.86-3.349-6.288l-5.564-40.6c-.445-3.247.681-6.511 3.034-8.792 1.937-1.879 4.516-2.906 7.169-2.906.569 0 1.142.047 1.712.144l40.729 6.864c2.31.39 4.418 1.555 5.977 3.303l59.885 67.188 60.23-67.529c1.63-1.829 3.86-3.016 6.287-3.349l40.599-5.565c.468-.064.936-.096 1.4-.096 2.767 0 5.439 1.116 7.393 3.13 2.281 2.353 3.308 5.65 2.764 8.882l-6.865 40.728c-.39 2.31-1.555 4.418-3.303 5.977l-69.317 61.785 15.409 17.288c12.872-6.682 24.246-7.81 30.452-7.81 2.793 0 4.561.225 5.036.294 13.236 1.929 16.685 8.239 17.246 13.193.557 4.914-1.355 11.763-13.546 16.6-.714.37-4.878 2.691-14.022 10.784l15.474 15.473c6.257.021 12.748 2.934 17.817 8.003 9.368 9.368 10.699 22.717 3.031 30.389l-9.599 9.596c-3.212 3.212-7.648 4.983-12.489 4.983-.001 0-.001 0-.003 0-6.282-.001-12.806-2.922-17.896-8.016-5.173-5.172-7.978-11.684-7.998-17.816l-15.475-15.474c-8.093 9.146-10.413 13.311-10.783 14.023-3.585 9.039-8.705 13.624-15.223 13.624-4.499 0-12.375-2.251-14.575-17.323-.109-.754-2.253-16.593 7.524-35.488l-19.536-17.425-19.971 17.804c9.777 18.896 7.632 34.731 7.522 35.482-2.196 15.074-10.073 17.325-14.572 17.325-6.516 0-11.635-4.582-15.22-13.623-.371-.714-2.693-4.879-10.786-14.022l-15.476 15.476c-.022 6.131-2.828 12.642-7.999 17.813-5.093 5.094-11.617 8.014-17.898 8.014z" fill="#d1d1d1"/><g fill="#454545"><path d="m91.936 183.865-19.465-19.464 123.626-138.609 40.598-5.565-6.864 40.728z"/><path d="m105.57 217.128c-1.585 10.882-6.142 11.397-10.122 1.146 0 0-3.189-8.209-26.182-31.202-22.993-22.992-31.204-26.181-31.204-26.181-10.251-3.982-9.734-8.539 1.147-10.126 0 0 23.854-3.478 46.845 19.515 22.994 22.993 19.516 46.848 19.516 46.848z"/><path d="m50.902 159.125h17.778v74.843h-17.778z" transform="matrix(.7071 .7071 -.7071 .7071 156.4846 15.2847)"/><path d="m44.426 234.299c-5.206 5.205-12.29 6.563-15.822 3.03l-9.596-9.596c-3.533-3.533-2.175-10.616 3.03-15.823 5.206-5.205 12.289-6.561 15.821-3.028l9.596 9.595c3.532 3.533 2.176 10.616-3.029 15.822z"/><path d="m183.517 164.027-19.464 19.465-138.611-123.626-5.564-40.599 40.728 6.864z"/><path d="m216.779 150.394c10.882 1.585 11.396 6.141 1.146 10.121 0 0-8.209 3.188-31.202 26.182-22.991 22.992-26.18 31.204-26.18 31.204-3.983 10.251-8.539 9.734-10.127-1.147 0 0-3.479-23.853 19.515-46.846 22.994-22.995 46.848-19.514 46.848-19.514z"/><path d="m187.309 158.752h17.778v74.841h-17.778z" transform="matrix(.7071 -.7071 .7071 .7071 -81.2498 196.1903)"/><path d="m233.95 211.537c5.205 5.205 6.563 12.289 3.03 15.823l-9.597 9.594c-3.533 3.534-10.618 2.177-15.822-3.029-5.205-5.205-6.562-12.288-3.028-15.821l9.595-9.596c3.533-3.533 10.616-2.177 15.822 3.029z"/></g></svg>