<svg viewBox="0 0 974.394 1056.923" xmlns="http://www.w3.org/2000/svg"><path d="M173.852 151.95h414.606c60.7 0 109.91 49.208 109.91 109.91s-49.21 109.908-109.91 109.908h-86.016c-35.42.052-64.12 28.75-64.17 64.166V544.71H173.85zM588.46 326.257c35.565 0 64.397-28.832 64.397-64.398s-28.832-64.4-64.398-64.4H219.363V499.2H392.76v-63.26c.08-60.544 49.138-109.604 109.675-109.682h.007zM973.436 893.78H502.443c-60.332-.483-109.12-49.223-109.68-109.49V435.937l45.51-.364c.756 35.02 29.103 63.176 64.128 63.624h471.994l-99.26 197.973zM438.272 523.777V784.1c.356 35.296 28.874 63.814 64.137 64.17h397.254l-75.548-151.097 76.55-152.462H502.444c-24.125-.056-46.407-7.9-64.477-21.15l.307.216zM698.14 261.632v283.08H502.442c-60.332-.485-109.12-49.225-109.68-109.493v-.42c.844-60.003 49.584-108.344 109.662-108.543h86.763c35.12-.813 63.3-29.405 63.442-64.612v-.014h45.51zM652.63 499.2V350.606c-17.4 12.892-39.19 20.774-62.806 21.16l-.092.002h-87.29c-35.19 0-63.716 28.526-63.716 63.716s28.526 63.716 63.716 63.716zm-433.266 546.133h-45.51V131.015c0-35.44-28.73-64.17-64.172-64.17s-64.17 28.73-64.17 64.17v914.318H0V131.015C0 70.44 49.106 21.333 109.682 21.333S219.364 70.44 219.364 131.015z"/></svg>