<svg viewBox="0 0 1024 1024" xmlns="http://www.w3.org/2000/svg"><path d="M511.985 31.993c-240.01 0-479.993 119.992-479.993 299.993 0 119.992 90 180 90 299.993 0 90-29.992 90-29.992 150.008 0 29.992 96.024 64 180 90V991.98h480.02V871.988s181.13-55.918 180-90c-1.857-55.893-29.992-60.01-29.992-150.01 0-60.008 91.28-182.836 90-299.992-.05-180-240.034-299.993-480.043-299.993zm-180 359.976c66.282 0 119.99 53.733 119.99 119.99 0 66.284-53.733 119.993-119.99 119.993S211.99 578.22 211.99 511.96c0-66.257 53.734-119.99 119.992-119.99zm360 0c66.283 0 119.992 53.733 119.992 119.99 0 66.284-53.734 119.993-119.992 119.993S571.993 578.22 571.993 511.96c0-66.257 53.734-119.99 119.992-119.99zm-180 210.016c29.992 0 90 119.992 90 150.01 0 60.008 0 60.008-29.992 60.008H452c-29.99 0-29.99 0-29.99-60.01-.026-30.016 59.982-150.008 89.974-150.008z"/></svg>