<svg viewBox="0 0 1024 1024" xmlns="http://www.w3.org/2000/svg"><path d="m524.687 300.37c150.687 262.016 336.002 77.735 321.852-88.624-8.532-100.272-104.629-191.364-277.539-184.248v-.003c-11.526.474-23.95 2.135-36.152 3.496-338.002 37.805-462.59 304.449-177.252 516.599 174.782 129.946 168.14 259.172-174.92 419.807h250.72c55.892-52.986 195.13-33.607 235.558-3.496 164.953-117.419 134.016-395.584-78.134-489.777-269.42-119.62-236.804-316.21-47.808-352.17 107.173-20.394 195.437 34.16 212.235 101.454 24.768 99.2-72.933 216.447-228.56 76.963zm109.303 605.273c-56.012 6.752-104.405-12.597-108.095-43.215-3.692-30.618 38.718-60.914 94.73-67.666 56.012-6.75 104.404 12.598 108.095 43.216s-38.717 60.914-94.73 67.666zm110.316-203.706c3.605 26.16-32.26 52.712-80.116 59.307-47.854 6.595-89.566-9.266-93.17-35.426s32.26-52.712 80.115-59.307c47.854-6.595 89.566 9.266 93.17 35.426zm-53.582-115.882c5.467 20.405-20.356 45.056-57.685 55.057-37.33 10.004-72.018 1.568-77.486-18.837s20.356-45.056 57.685-55.057c37.326-10.003 72.016-1.57 77.484 18.838zm-94.554-77.79c4 14.93-14.896 32.966-42.21 40.284s-52.697 1.146-56.698-13.785c-4-14.93 14.896-32.967 42.21-40.285s52.697-1.146 56.698 13.785zm-126.926-60.865c17.436-4.673 33.64-.733 36.194 8.8s-9.508 21.045-26.946 25.718-33.642.732-36.194-8.8c-2.554-9.532 9.508-21.046 26.946-25.72zm-44.728-43.45c12.03-3.224 23.21-.504 24.972 6.07 1.762 6.577-6.56 14.52-18.59 17.744s-23.21.504-24.973-6.07c-1.762-6.577 6.56-14.52 18.59-17.744z"/></svg>