<svg height="15" viewBox="0 0 15 15" width="15" xmlns="http://www.w3.org/2000/svg"><path d="m6.176 4.176a.249.249 0 0 0 -.352 0l-4.4 4.4a.25.25 0 0 0 .176.424h1.4v4.751a.249.249 0 0 0 .249.249h3.5a.249.249 0 0 0 .251-.247v-5.43a.249.249 0 0 1 .073-.176l1.427-1.647zm-.176 7.824h-1v-1h1zm0-2h-1v-1h1zm6.75-4h-.5a.25.25 0 0 0 -.25.25v1.75l-1.324-1.824a.249.249 0 0 0 -.352 0l-2.268 2.756a.246.246 0 0 0 -.056.156v4.66a.249.249 0 0 0 .246.252h1.5a.253.253 0 0 0 .254-.252v-1.748h1v1.747a.253.253 0 0 0 .253.253h1.5a.25.25 0 0 0 .247-.249v-7.501a.25.25 0 0 0 -.25-.25zm-2.75 5h-1v-1h1zm2 0h-1v-1h1z"/></svg>